{
    "asset": {
        "version": "2.0",
        "generator": "Open Asset Import Library (assimp v5.2.0)"
    },
    "extensionsUsed": [
        "KHR_materials_pbrSpecularGlossiness",
        "FB_ngon_encoding"
    ],
    "accessors": [
        {
            "bufferView": 0,
            "byteOffset": 0,
            "componentType": 5126,
            "count": 127,
            "type": "VEC3",
            "max": [
                0.7264389991760254,
                13.181201934814454,
                4.809307098388672
            ],
            "min": [
                -0.7264410257339478,
                0.0,
                -0.779246985912323
            ]
        },
        {
            "bufferView": 1,
            "byteOffset": 0,
            "componentType": 5126,
            "count": 127,
            "type": "VEC3",
            "max": [
                0.9998111128807068,
                0.9696035385131836,
                0.998386025428772
            ],
            "min": [
                -0.9997783303260803,
                -0.7124091982841492,
                -0.9902123808860779
            ]
        },
        {
            "bufferView": 2,
            "byteOffset": 0,
            "componentType": 5126,
            "count": 127,
            "type": "VEC2",
            "max": [
                0.9944630265235901,
                0.9837769865989685
            ],
            "min": [
                0.012954999692738057,
                0.009042024612426758
            ]
        },
        {
            "bufferView": 3,
            "byteOffset": 0,
            "componentType": 5125,
            "count": 408,
            "type": "SCALAR",
            "max": [
                126
            ],
            "min": [
                0
            ]
        },
        {
            "bufferView": 4,
            "byteOffset": 0,
            "componentType": 5126,
            "count": 240,
            "type": "VEC3",
            "max": [
                8.795032501220704,
                5.235005855560303,
                7.682734966278076
            ],
            "min": [
                1.5611350536346436,
                -2.038677930831909,
                -0.5646759867668152
            ]
        },
        {
            "bufferView": 5,
            "byteOffset": 0,
            "componentType": 5126,
            "count": 240,
            "type": "VEC3",
            "max": [
                0.6509808301925659,
                0.9999056458473206,
                0.6604565978050232
            ],
            "min": [
                -0.9675742387771606,
                -0.4103737771511078,
                -0.9920381307601929
            ]
        },
        {
            "bufferView": 6,
            "byteOffset": 0,
            "componentType": 5126,
            "count": 240,
            "type": "VEC2",
            "max": [
                0.9971820116043091,
                0.9899060130119324
            ],
            "min": [
                0.005286000203341246,
                0.005285978317260742
            ]
        },
        {
            "bufferView": 7,
            "byteOffset": 0,
            "componentType": 5125,
            "count": 768,
            "type": "SCALAR",
            "max": [
                239
            ],
            "min": [
                0
            ]
        }
    ],
    "buffers": [
        {
            "byteLength": 16448,
            "uri": "AlphaPalm2.bin"
        }
    ],
    "bufferViews": [
        {
            "buffer": 0,
            "byteOffset": 0,
            "byteLength": 1524,
            "target": 34962
        },
        {
            "buffer": 0,
            "byteOffset": 1524,
            "byteLength": 1524,
            "target": 34962
        },
        {
            "buffer": 0,
            "byteOffset": 3048,
            "byteLength": 1016,
            "target": 34962
        },
        {
            "buffer": 0,
            "byteOffset": 4064,
            "byteLength": 1632,
            "target": 34963
        },
        {
            "buffer": 0,
            "byteOffset": 5696,
            "byteLength": 2880,
            "target": 34962
        },
        {
            "buffer": 0,
            "byteOffset": 8576,
            "byteLength": 2880,
            "target": 34962
        },
        {
            "buffer": 0,
            "byteOffset": 11456,
            "byteLength": 1920,
            "target": 34962
        },
        {
            "buffer": 0,
            "byteOffset": 13376,
            "byteLength": 3072,
            "target": 34963
        }
    ],
    "materials": [
        {
            "name": "orig_09_-_Defaultiuop_",
            "pbrMetallicRoughness": {
                "metallicFactor": 0.0
            },
            "extensions": {
                "KHR_materials_pbrSpecularGlossiness": {
                    "glossinessFactor": 0.0
                }
            }
        },
        {
            "name": "orig_09_-_Defaulta",
            "pbrMetallicRoughness": {
                "metallicFactor": 0.0
            },
            "extensions": {
                "KHR_materials_pbrSpecularGlossiness": {
                    "glossinessFactor": 0.0
                }
            }
        }
    ],
    "meshes": [
        {
            "primitives": [
                {
                    "mode": 4,
                    "material": 0,
                    "indices": 3,
                    "attributes": {
                        "POSITION": 0,
                        "NORMAL": 1,
                        "TEXCOORD_0": 2
                    }
                }
            ]
        },
        {
            "primitives": [
                {
                    "mode": 4,
                    "material": 0,
                    "indices": 7,
                    "attributes": {
                        "POSITION": 4,
                        "NORMAL": 5,
                        "TEXCOORD_0": 6
                    }
                }
            ]
        }
    ],
    "nodes": [
        {
            "name": "$dummy_root",
            "children": [
                1,
                2
            ]
        },
        {
            "name": "Palm",
            "matrix": [
                0.8227869868278503,
                0.0,
                -0.0,
                0.0,
                0.0,
                0.8227869868278503,
                -0.0,
                0.0,
                -0.0,
                -0.0,
                0.8227869868278503,
                -0.0,
                0.0015010000206530095,
                -0.02928899973630905,
                0.003140999935567379,
                1.0
            ],
            "mesh": 0
        },
        {
            "name": "Mesh04",
            "matrix": [
                -0.5413010120391846,
                0.3494040071964264,
                -0.7647939920425415,
                0.0,
                0.20185500383377076,
                0.9369720220565796,
                0.285196989774704,
                0.0,
                0.8162400126457214,
                -0.0,
                -0.5777130126953125,
                -0.0,
                -0.3185962438583374,
                6.7805070877075199,
                8.333039283752442,
                1.0
            ],
            "mesh": 1
        }
    ],
    "scenes": [
        {
            "nodes": [
                0
            ]
        }
    ],
    "scene": 0
}