{
    "asset": {
        "version": "2.0",
        "generator": "Open Asset Import Library (assimp v5.2.0)"
    },
    "extensionsUsed": [
        "KHR_materials_pbrSpecularGlossiness",
        "FB_ngon_encoding"
    ],
    "accessors": [
        {
            "bufferView": 0,
            "byteOffset": 0,
            "componentType": 5126,
            "count": 97,
            "type": "VEC3",
            "max": [
                0.9143999814987183,
                6.147113800048828,
                0.9143999814987183
            ],
            "min": [
                -0.9143999814987183,
                0.0,
                -0.9143999814987183
            ]
        },
        {
            "bufferView": 1,
            "byteOffset": 0,
            "componentType": 5126,
            "count": 97,
            "type": "VEC3",
            "max": [
                0.9991999864578247,
                1.0,
                0.9991999864578247
            ],
            "min": [
                -0.9991999864578247,
                -1.0,
                -0.9991999864578247
            ]
        },
        {
            "bufferView": 2,
            "byteOffset": 0,
            "componentType": 5126,
            "count": 97,
            "type": "VEC2",
            "max": [
                0.9925389885902405,
                0.9833160042762756
            ],
            "min": [
                -0.26136699318885805,
                0.005936980247497559
            ]
        },
        {
            "bufferView": 3,
            "byteOffset": 0,
            "componentType": 5125,
            "count": 288,
            "type": "SCALAR",
            "max": [
                96
            ],
            "min": [
                0
            ]
        },
        {
            "bufferView": 4,
            "byteOffset": 0,
            "componentType": 5126,
            "count": 240,
            "type": "VEC3",
            "max": [
                11.608074188232422,
                5.6875901222229,
                6.821616172790527
            ],
            "min": [
                4.969937801361084,
                -1.8101999759674073,
                -0.5635039806365967
            ]
        },
        {
            "bufferView": 5,
            "byteOffset": 0,
            "componentType": 5126,
            "count": 240,
            "type": "VEC3",
            "max": [
                0.35663703083992007,
                0.9989795684814453,
                0.9076489806175232
            ],
            "min": [
                -0.9981549978256226,
                -0.3445618748664856,
                -0.8830873966217041
            ]
        },
        {
            "bufferView": 6,
            "byteOffset": 0,
            "componentType": 5126,
            "count": 240,
            "type": "VEC2",
            "max": [
                0.9942479729652405,
                0.9708160161972046
            ],
            "min": [
                0.0051380000077188019,
                0.029093027114868165
            ]
        },
        {
            "bufferView": 7,
            "byteOffset": 0,
            "componentType": 5125,
            "count": 768,
            "type": "SCALAR",
            "max": [
                239
            ],
            "min": [
                0
            ]
        }
    ],
    "buffers": [
        {
            "byteLength": 15008,
            "uri": "AlphaPalmSmall.bin"
        }
    ],
    "bufferViews": [
        {
            "buffer": 0,
            "byteOffset": 0,
            "byteLength": 1164,
            "target": 34962
        },
        {
            "buffer": 0,
            "byteOffset": 1164,
            "byteLength": 1164,
            "target": 34962
        },
        {
            "buffer": 0,
            "byteOffset": 2328,
            "byteLength": 776,
            "target": 34962
        },
        {
            "buffer": 0,
            "byteOffset": 3104,
            "byteLength": 1152,
            "target": 34963
        },
        {
            "buffer": 0,
            "byteOffset": 4256,
            "byteLength": 2880,
            "target": 34962
        },
        {
            "buffer": 0,
            "byteOffset": 7136,
            "byteLength": 2880,
            "target": 34962
        },
        {
            "buffer": 0,
            "byteOffset": 10016,
            "byteLength": 1920,
            "target": 34962
        },
        {
            "buffer": 0,
            "byteOffset": 11936,
            "byteLength": 3072,
            "target": 34963
        }
    ],
    "materials": [
        {
            "name": "PDX09_-_Default",
            "pbrMetallicRoughness": {
                "metallicFactor": 0.0
            },
            "extensions": {
                "KHR_materials_pbrSpecularGlossiness": {
                    "glossinessFactor": 0.0
                }
            }
        },
        {
            "name": "orig_09_-_Default",
            "pbrMetallicRoughness": {
                "metallicFactor": 0.0
            },
            "extensions": {
                "KHR_materials_pbrSpecularGlossiness": {
                    "glossinessFactor": 0.0
                }
            }
        }
    ],
    "meshes": [
        {
            "primitives": [
                {
                    "mode": 4,
                    "material": 0,
                    "indices": 3,
                    "attributes": {
                        "POSITION": 0,
                        "NORMAL": 1,
                        "TEXCOORD_0": 2
                    }
                }
            ]
        },
        {
            "primitives": [
                {
                    "mode": 4,
                    "material": 0,
                    "indices": 7,
                    "attributes": {
                        "POSITION": 4,
                        "NORMAL": 5,
                        "TEXCOORD_0": 6
                    }
                }
            ]
        }
    ],
    "nodes": [
        {
            "name": "$dummy_root",
            "children": [
                1,
                2
            ]
        },
        {
            "name": "Palm2_stamm",
            "matrix": [
                0.7559999823570252,
                0.0,
                -0.0,
                0.0,
                0.0,
                0.7559999823570252,
                -0.0,
                0.0,
                -0.0,
                -0.0,
                0.7559999823570252,
                -0.0,
                -0.028064999729394914,
                -0.004767000209540129,
                0.007263000123202801,
                1.0
            ],
            "mesh": 0
        },
        {
            "name": "Mesh08",
            "matrix": [
                0.0,
                -0.6006370186805725,
                -0.6006370186805725,
                0.0,
                0.0,
                0.6006370186805725,
                -0.6006370186805725,
                0.0,
                0.8494290113449097,
                -0.0,
                -0.0,
                -0.0,
                -2.868508815765381,
                8.307256698608399,
                6.057343482971191,
                1.0
            ],
            "mesh": 1
        }
    ],
    "scenes": [
        {
            "nodes": [
                0
            ]
        }
    ],
    "scene": 0
}