{
    "asset": {
        "version": "2.0",
        "generator": "Open Asset Import Library (assimp v5.2.0)"
    },
    "extensionsUsed": [
        "KHR_materials_pbrSpecularGlossiness",
        "FB_ngon_encoding"
    ],
    "accessors": [
        {
            "bufferView": 0,
            "byteOffset": 0,
            "componentType": 5126,
            "count": 127,
            "type": "VEC3",
            "max": [
                0.7264400124549866,
                14.933500289916993,
                0.7264400124549866
            ],
            "min": [
                -0.7264400124549866,
                0.0,
                -0.7264400124549866
            ]
        },
        {
            "bufferView": 1,
            "byteOffset": 0,
            "componentType": 5126,
            "count": 127,
            "type": "VEC3",
            "max": [
                0.9999969005584717,
                1.0,
                0.9999893307685852
            ],
            "min": [
                -0.9999969005584717,
                -0.39502808451652529,
                -1.0
            ]
        },
        {
            "bufferView": 2,
            "byteOffset": 0,
            "componentType": 5126,
            "count": 127,
            "type": "VEC2",
            "max": [
                0.9944630265235901,
                0.9837769865989685
            ],
            "min": [
                0.012954999692738057,
                0.009042024612426758
            ]
        },
        {
            "bufferView": 3,
            "byteOffset": 0,
            "componentType": 5125,
            "count": 408,
            "type": "SCALAR",
            "max": [
                126
            ],
            "min": [
                0
            ]
        },
        {
            "bufferView": 4,
            "byteOffset": 0,
            "componentType": 5126,
            "count": 240,
            "type": "VEC3",
            "max": [
                11.127820014953614,
                5.178569793701172,
                9.065203666687012
            ],
            "min": [
                3.3530449867248537,
                -1.5970089435577393,
                0.9791809916496277
            ]
        },
        {
            "bufferView": 5,
            "byteOffset": 0,
            "componentType": 5126,
            "count": 240,
            "type": "VEC3",
            "max": [
                0.9655767679214478,
                1.0,
                0.9384502172470093
            ],
            "min": [
                -0.7328689694404602,
                0.1041869968175888,
                -0.9253523945808411
            ]
        },
        {
            "bufferView": 6,
            "byteOffset": 0,
            "componentType": 5126,
            "count": 240,
            "type": "VEC2",
            "max": [
                0.9971820116043091,
                0.9899060130119324
            ],
            "min": [
                0.005286000203341246,
                0.005285978317260742
            ]
        },
        {
            "bufferView": 7,
            "byteOffset": 0,
            "componentType": 5125,
            "count": 768,
            "type": "SCALAR",
            "max": [
                239
            ],
            "min": [
                0
            ]
        }
    ],
    "buffers": [
        {
            "byteLength": 16448,
            "uri": "AlphaPalm.bin"
        }
    ],
    "bufferViews": [
        {
            "buffer": 0,
            "byteOffset": 0,
            "byteLength": 1524,
            "target": 34962
        },
        {
            "buffer": 0,
            "byteOffset": 1524,
            "byteLength": 1524,
            "target": 34962
        },
        {
            "buffer": 0,
            "byteOffset": 3048,
            "byteLength": 1016,
            "target": 34962
        },
        {
            "buffer": 0,
            "byteOffset": 4064,
            "byteLength": 1632,
            "target": 34963
        },
        {
            "buffer": 0,
            "byteOffset": 5696,
            "byteLength": 2880,
            "target": 34962
        },
        {
            "buffer": 0,
            "byteOffset": 8576,
            "byteLength": 2880,
            "target": 34962
        },
        {
            "buffer": 0,
            "byteOffset": 11456,
            "byteLength": 1920,
            "target": 34962
        },
        {
            "buffer": 0,
            "byteOffset": 13376,
            "byteLength": 3072,
            "target": 34963
        }
    ],
    "materials": [
        {
            "name": "orig_09_-_Defaultiuop_",
            "pbrMetallicRoughness": {
                "metallicFactor": 0.0
            },
            "extensions": {
                "KHR_materials_pbrSpecularGlossiness": {
                    "glossinessFactor": 0.0
                }
            }
        },
        {
            "name": "orig_09_-_Defaulta",
            "pbrMetallicRoughness": {
                "metallicFactor": 0.0
            },
            "extensions": {
                "KHR_materials_pbrSpecularGlossiness": {
                    "glossinessFactor": 0.0
                }
            }
        }
    ],
    "meshes": [
        {
            "primitives": [
                {
                    "mode": 4,
                    "material": 0,
                    "indices": 3,
                    "attributes": {
                        "POSITION": 0,
                        "NORMAL": 1,
                        "TEXCOORD_0": 2
                    }
                }
            ]
        },
        {
            "primitives": [
                {
                    "mode": 4,
                    "material": 0,
                    "indices": 7,
                    "attributes": {
                        "POSITION": 4,
                        "NORMAL": 5,
                        "TEXCOORD_0": 6
                    }
                }
            ]
        }
    ],
    "nodes": [
        {
            "name": "$dummy_root",
            "children": [
                1,
                2
            ]
        },
        {
            "name": "Palm",
            "matrix": [
                0.8227869868278503,
                0.0,
                -0.0,
                0.0,
                0.0,
                0.8227869868278503,
                -0.0,
                0.0,
                -0.0,
                -0.0,
                0.8227869868278503,
                -0.0,
                0.0015010000206530095,
                -0.02928899973630905,
                0.003140999935567379,
                1.0
            ],
            "mesh": 0
        },
        {
            "name": "Mesh04",
            "matrix": [
                -0.5413010120391846,
                0.3494040071964264,
                -0.7647939920425415,
                0.0,
                0.20185500383377076,
                0.9369720220565796,
                0.285196989774704,
                0.0,
                0.8162400126457214,
                -0.0,
                -0.5777130126953125,
                -0.0,
                -0.3185962438583374,
                6.7805070877075199,
                8.333039283752442,
                1.0
            ],
            "mesh": 1
        }
    ],
    "scenes": [
        {
            "nodes": [
                0
            ]
        }
    ],
    "scene": 0
}