{
    "asset": {
        "version": "2.0",
        "generator": "Open Asset Import Library (assimp v5.2.0)"
    },
    "extensionsUsed": [
        "KHR_materials_pbrSpecularGlossiness",
        "FB_ngon_encoding"
    ],
    "accessors": [
        {
            "bufferView": 0,
            "byteOffset": 0,
            "componentType": 5126,
            "count": 1860,
            "type": "VEC3",
            "max": [
                2.2230589389801027,
                10.875961303710938,
                3.174999952316284
            ],
            "min": [
                -1.3970000743865967,
                0.0,
                -3.174999952316284
            ]
        },
        {
            "bufferView": 1,
            "byteOffset": 0,
            "componentType": 5126,
            "count": 1860,
            "type": "VEC3",
            "max": [
                1.0,
                1.0,
                1.0
            ],
            "min": [
                -1.0,
                -1.0,
                -1.0
            ]
        },
        {
            "bufferView": 2,
            "byteOffset": 0,
            "componentType": 5126,
            "count": 1860,
            "type": "VEC2",
            "max": [
                1.0013829469680787,
                0.9987829923629761
            ],
            "min": [
                -0.9763079881668091,
                -1.0697388648986817
            ]
        },
        {
            "bufferView": 3,
            "byteOffset": 0,
            "componentType": 5125,
            "count": 3855,
            "type": "SCALAR",
            "max": [
                1859
            ],
            "min": [
                0
            ]
        },
        {
            "bufferView": 4,
            "byteOffset": 0,
            "componentType": 5126,
            "count": 28,
            "type": "VEC3",
            "max": [
                0.09525000303983689,
                0.0,
                2.6670000553131105
            ],
            "min": [
                -2.6388111114501955,
                -7.162619113922119,
                -2.6670000553131105
            ]
        },
        {
            "bufferView": 5,
            "byteOffset": 0,
            "componentType": 5126,
            "count": 28,
            "type": "VEC3",
            "max": [
                1.0,
                0.0,
                1.0
            ],
            "min": [
                -1.0,
                0.0,
                -1.0
            ]
        },
        {
            "bufferView": 6,
            "byteOffset": 0,
            "componentType": 5126,
            "count": 28,
            "type": "VEC2",
            "max": [
                1.0,
                1.0
            ],
            "min": [
                0.0,
                0.0
            ]
        },
        {
            "bufferView": 7,
            "byteOffset": 0,
            "componentType": 5125,
            "count": 42,
            "type": "SCALAR",
            "max": [
                27
            ],
            "min": [
                0
            ]
        }
    ],
    "buffers": [
        {
            "byteLength": 76004,
            "uri": "Casino01.bin"
        }
    ],
    "bufferViews": [
        {
            "buffer": 0,
            "byteOffset": 0,
            "byteLength": 22320,
            "target": 34962
        },
        {
            "buffer": 0,
            "byteOffset": 22320,
            "byteLength": 22320,
            "target": 34962
        },
        {
            "buffer": 0,
            "byteOffset": 44640,
            "byteLength": 14880,
            "target": 34962
        },
        {
            "buffer": 0,
            "byteOffset": 59520,
            "byteLength": 15420,
            "target": 34963
        },
        {
            "buffer": 0,
            "byteOffset": 74940,
            "byteLength": 336,
            "target": 34962
        },
        {
            "buffer": 0,
            "byteOffset": 75276,
            "byteLength": 336,
            "target": 34962
        },
        {
            "buffer": 0,
            "byteOffset": 75612,
            "byteLength": 224,
            "target": 34962
        },
        {
            "buffer": 0,
            "byteOffset": 75836,
            "byteLength": 168,
            "target": 34963
        }
    ],
    "materials": [
        {
            "name": "Material__153",
            "pbrMetallicRoughness": {
                "metallicFactor": 0.0
            },
            "extensions": {
                "KHR_materials_pbrSpecularGlossiness": {
                    "glossinessFactor": 0.0
                }
            }
        },
        {
            "name": "Material__39",
            "pbrMetallicRoughness": {
                "metallicFactor": 0.0
            },
            "extensions": {
                "KHR_materials_pbrSpecularGlossiness": {
                    "glossinessFactor": 0.0
                }
            }
        }
    ],
    "meshes": [
        {
            "primitives": [
                {
                    "mode": 4,
                    "material": 0,
                    "indices": 3,
                    "attributes": {
                        "POSITION": 0,
                        "NORMAL": 1,
                        "TEXCOORD_0": 2
                    }
                }
            ]
        },
        {
            "primitives": [
                {
                    "mode": 4,
                    "material": 0,
                    "indices": 7,
                    "attributes": {
                        "POSITION": 4,
                        "NORMAL": 5,
                        "TEXCOORD_0": 6
                    }
                }
            ]
        }
    ],
    "nodes": [
        {
            "name": "$dummy_root",
            "children": [
                1,
                2
            ]
        },
        {
            "name": "LadyLuck",
            "matrix": [
                6.268105983734131,
                0.0,
                -0.0,
                0.0,
                0.0,
                6.268105983734131,
                -0.0,
                0.0,
                -0.0,
                -0.0,
                6.268105983734131,
                -0.0,
                -0.0670349970459938,
                0.04796599969267845,
                0.7620009779930115,
                1.0
            ],
            "mesh": 0
        },
        {
            "name": "glas",
            "matrix": [
                6.268105983734131,
                0.0,
                -0.0,
                0.0,
                0.0,
                6.268105983734131,
                -0.0,
                0.0,
                -0.0,
                -0.0,
                6.268105983734131,
                -0.0,
                8.4973726272583,
                46.218833923339847,
                0.7620009779930115,
                1.0
            ],
            "mesh": 1
        }
    ],
    "scenes": [
        {
            "nodes": [
                0
            ]
        }
    ],
    "scene": 0
}