{
    "asset": {
        "version": "2.0",
        "generator": "Open Asset Import Library (assimp v5.2.0)"
    },
    "extensionsUsed": [
        "KHR_materials_pbrSpecularGlossiness",
        "FB_ngon_encoding"
    ],
    "accessors": [
        {
            "bufferView": 0,
            "byteOffset": 0,
            "componentType": 5126,
            "count": 103,
            "type": "VEC3",
            "max": [
                300.0,
                775.0,
                274.9949645996094
            ],
            "min": [
                200.0,
                725.0,
                -115.00504302978516
            ]
        },
        {
            "bufferView": 1,
            "byteOffset": 0,
            "componentType": 5126,
            "count": 103,
            "type": "VEC3",
            "max": [
                0.9238797426223755,
                1.0,
                1.0
            ],
            "min": [
                -1.0,
                -1.0,
                -1.0
            ]
        },
        {
            "bufferView": 2,
            "byteOffset": 0,
            "componentType": 5126,
            "count": 103,
            "type": "VEC2",
            "max": [
                0.9780570268630981,
                0.508965015411377
            ],
            "min": [
                0.04447700083255768,
                0.08404600620269776
            ]
        },
        {
            "bufferView": 3,
            "byteOffset": 0,
            "componentType": 5125,
            "count": 204,
            "type": "SCALAR",
            "max": [
                102
            ],
            "min": [
                0
            ]
        }
    ],
    "buffers": [
        {
            "byteLength": 4112,
            "uri": "GuardRailHolder.bin"
        }
    ],
    "bufferViews": [
        {
            "buffer": 0,
            "byteOffset": 0,
            "byteLength": 1236,
            "target": 34962
        },
        {
            "buffer": 0,
            "byteOffset": 1236,
            "byteLength": 1236,
            "target": 34962
        },
        {
            "buffer": 0,
            "byteOffset": 2472,
            "byteLength": 824,
            "target": 34962
        },
        {
            "buffer": 0,
            "byteOffset": 3296,
            "byteLength": 816,
            "target": 34963
        }
    ],
    "materials": [
        {
            "name": "PDX09_-_Default",
            "pbrMetallicRoughness": {
                "metallicFactor": 0.0
            },
            "extensions": {
                "KHR_materials_pbrSpecularGlossiness": {
                    "glossinessFactor": 0.0
                }
            }
        }
    ],
    "meshes": [
        {
            "primitives": [
                {
                    "mode": 4,
                    "material": 0,
                    "indices": 3,
                    "attributes": {
                        "POSITION": 0,
                        "NORMAL": 1,
                        "TEXCOORD_0": 2
                    }
                }
            ]
        }
    ],
    "nodes": [
        {
            "name": "Mesh01",
            "matrix": [
                0.002102999947965145,
                0.0,
                0.0,
                0.0,
                0.0,
                0.0,
                0.002102999947965145,
                0.0,
                0.0,
                -0.002102999947965145,
                0.0,
                0.0,
                -0.5888400077819824,
                0.5783249139785767,
                -1.5772370100021363,
                1.0
            ],
            "mesh": 0
        }
    ],
    "scenes": [
        {
            "nodes": [
                0
            ]
        }
    ],
    "scene": 0
}