{
    "asset": {
        "version": "2.0",
        "generator": "Open Asset Import Library (assimp v5.2.0)"
    },
    "extensionsUsed": [
        "KHR_materials_pbrSpecularGlossiness",
        "FB_ngon_encoding"
    ],
    "accessors": [
        {
            "bufferView": 0,
            "byteOffset": 0,
            "componentType": 5126,
            "count": 356,
            "type": "VEC3",
            "max": [
                1.7246010303497315,
                4.826000213623047,
                0.9421169757843018
            ],
            "min": [
                -1.7241730690002442,
                0.0,
                -0.9421169757843018
            ]
        },
        {
            "bufferView": 1,
            "byteOffset": 0,
            "componentType": 5126,
            "count": 356,
            "type": "VEC3",
            "max": [
                1.0,
                1.0,
                0.9579386711120606
            ],
            "min": [
                -1.0,
                -1.0,
                -0.9579386711120606
            ]
        },
        {
            "bufferView": 2,
            "byteOffset": 0,
            "componentType": 5126,
            "count": 356,
            "type": "VEC2",
            "max": [
                0.969914972782135,
                0.9944360256195068
            ],
            "min": [
                0.027281999588012697,
                0.005679011344909668
            ]
        },
        {
            "bufferView": 3,
            "byteOffset": 0,
            "componentType": 5125,
            "count": 900,
            "type": "SCALAR",
            "max": [
                355
            ],
            "min": [
                0
            ]
        }
    ],
    "buffers": [
        {
            "byteLength": 14992,
            "uri": "Hydrant_0.bin"
        }
    ],
    "bufferViews": [
        {
            "buffer": 0,
            "byteOffset": 0,
            "byteLength": 4272,
            "target": 34962
        },
        {
            "buffer": 0,
            "byteOffset": 4272,
            "byteLength": 4272,
            "target": 34962
        },
        {
            "buffer": 0,
            "byteOffset": 8544,
            "byteLength": 2848,
            "target": 34962
        },
        {
            "buffer": 0,
            "byteOffset": 11392,
            "byteLength": 3600,
            "target": 34963
        }
    ],
    "materials": [
        {
            "name": "orig_09_-_Default",
            "pbrMetallicRoughness": {
                "metallicFactor": 0.0
            },
            "extensions": {
                "KHR_materials_pbrSpecularGlossiness": {
                    "glossinessFactor": 0.0
                }
            }
        }
    ],
    "meshes": [
        {
            "primitives": [
                {
                    "mode": 4,
                    "material": 0,
                    "indices": 3,
                    "attributes": {
                        "POSITION": 0,
                        "NORMAL": 1,
                        "TEXCOORD_0": 2
                    }
                }
            ]
        }
    ],
    "nodes": [
        {
            "name": "Hydrant",
            "matrix": [
                0.29153698682785036,
                0.0,
                0.0,
                0.0,
                0.0,
                0.29153698682785036,
                0.0,
                0.0,
                0.0,
                0.0,
                0.29153698682785036,
                0.0,
                0.0,
                0.0,
                0.0,
                1.0
            ],
            "mesh": 0
        }
    ],
    "scenes": [
        {
            "nodes": [
                0
            ]
        }
    ],
    "scene": 0
}