{
    "asset": {
        "version": "2.0",
        "generator": "Open Asset Import Library (assimp v5.2.0)"
    },
    "extensionsUsed": [
        "KHR_materials_pbrSpecularGlossiness",
        "FB_ngon_encoding"
    ],
    "accessors": [
        {
            "bufferView": 0,
            "byteOffset": 0,
            "componentType": 5126,
            "count": 243,
            "type": "VEC3",
            "max": [
                1.0593440532684327,
                8.601232528686524,
                1.137133002281189
            ],
            "min": [
                -1.742595911026001,
                -1.1508569717407227,
                -1.0395300388336182
            ]
        },
        {
            "bufferView": 1,
            "byteOffset": 0,
            "componentType": 5126,
            "count": 243,
            "type": "VEC3",
            "max": [
                0.999978244304657,
                0.9931157827377319,
                0.9996309876441956
            ],
            "min": [
                -0.9997304677963257,
                -1.0,
                -0.999967098236084
            ]
        },
        {
            "bufferView": 2,
            "byteOffset": 0,
            "componentType": 5126,
            "count": 243,
            "type": "VEC2",
            "max": [
                0.9893109798431397,
                0.9589040279388428
            ],
            "min": [
                -0.004110000096261501,
                0.09769797325134278
            ]
        },
        {
            "bufferView": 3,
            "byteOffset": 0,
            "componentType": 5125,
            "count": 984,
            "type": "SCALAR",
            "max": [
                242
            ],
            "min": [
                0
            ]
        }
    ],
    "buffers": [
        {
            "byteLength": 11712,
            "uri": "KaktusBenny.bin"
        }
    ],
    "bufferViews": [
        {
            "buffer": 0,
            "byteOffset": 0,
            "byteLength": 2916,
            "target": 34962
        },
        {
            "buffer": 0,
            "byteOffset": 2916,
            "byteLength": 2916,
            "target": 34962
        },
        {
            "buffer": 0,
            "byteOffset": 5832,
            "byteLength": 1944,
            "target": 34962
        },
        {
            "buffer": 0,
            "byteOffset": 7776,
            "byteLength": 3936,
            "target": 34963
        }
    ],
    "materials": [
        {
            "name": "PDX03_-_Default",
            "pbrMetallicRoughness": {
                "metallicFactor": 0.0
            },
            "extensions": {
                "KHR_materials_pbrSpecularGlossiness": {
                    "glossinessFactor": 0.0
                }
            }
        }
    ],
    "meshes": [
        {
            "primitives": [
                {
                    "mode": 4,
                    "material": 0,
                    "indices": 3,
                    "attributes": {
                        "POSITION": 0,
                        "NORMAL": 1,
                        "TEXCOORD_0": 2
                    }
                }
            ]
        }
    ],
    "nodes": [
        {
            "name": "Kaktus",
            "matrix": [
                0.43932199478149416,
                0.0,
                0.0,
                0.0,
                0.0,
                0.43932199478149416,
                0.0,
                0.0,
                0.0,
                0.0,
                0.43932199478149416,
                0.0,
                0.0,
                0.5061490535736084,
                0.0,
                1.0
            ],
            "mesh": 0
        }
    ],
    "scenes": [
        {
            "nodes": [
                0
            ]
        }
    ],
    "scene": 0
}