{
    "asset": {
        "version": "2.0",
        "generator": "Open Asset Import Library (assimp v5.2.0)"
    },
    "extensionsUsed": [
        "KHR_materials_pbrSpecularGlossiness",
        "FB_ngon_encoding"
    ],
    "accessors": [
        {
            "bufferView": 0,
            "byteOffset": 0,
            "componentType": 5126,
            "count": 484,
            "type": "VEC3",
            "max": [
                4.801942825317383,
                6.349495887756348,
                9.036057472229004
            ],
            "min": [
                -12.26126766204834,
                -31.793542861938478,
                -3.9121429920196535
            ]
        },
        {
            "bufferView": 1,
            "byteOffset": 0,
            "componentType": 5126,
            "count": 484,
            "type": "VEC3",
            "max": [
                0.9991166591644287,
                0.9991589784622192,
                0.9998018741607666
            ],
            "min": [
                -0.9904653429985046,
                -0.9999903440475464,
                -0.9998018741607666
            ]
        },
        {
            "bufferView": 2,
            "byteOffset": 0,
            "componentType": 5126,
            "count": 484,
            "type": "VEC2",
            "max": [
                0.9919970035552979,
                0.9547209739685059
            ],
            "min": [
                0.007581999991089106,
                0.0653349757194519
            ]
        },
        {
            "bufferView": 3,
            "byteOffset": 0,
            "componentType": 5125,
            "count": 2148,
            "type": "SCALAR",
            "max": [
                483
            ],
            "min": [
                0
            ]
        }
    ],
    "buffers": [
        {
            "byteLength": 24080,
            "uri": "KaktusSeg_0.bin"
        }
    ],
    "bufferViews": [
        {
            "buffer": 0,
            "byteOffset": 0,
            "byteLength": 5808,
            "target": 34962
        },
        {
            "buffer": 0,
            "byteOffset": 5808,
            "byteLength": 5808,
            "target": 34962
        },
        {
            "buffer": 0,
            "byteOffset": 11616,
            "byteLength": 3872,
            "target": 34962
        },
        {
            "buffer": 0,
            "byteOffset": 15488,
            "byteLength": 8592,
            "target": 34963
        }
    ],
    "materials": [
        {
            "name": "PDX09_-_Default",
            "pbrMetallicRoughness": {
                "metallicFactor": 0.0
            },
            "extensions": {
                "KHR_materials_pbrSpecularGlossiness": {
                    "glossinessFactor": 0.0
                }
            }
        }
    ],
    "meshes": [
        {
            "primitives": [
                {
                    "mode": 4,
                    "material": 0,
                    "indices": 3,
                    "attributes": {
                        "POSITION": 0,
                        "NORMAL": 1,
                        "TEXCOORD_0": 2
                    }
                }
            ]
        }
    ],
    "nodes": [
        {
            "name": "KaktusSeg",
            "matrix": [
                -0.11098700016736984,
                0.0,
                0.0,
                0.0,
                0.0,
                -0.11098700016736984,
                0.0,
                0.0,
                0.0,
                0.0,
                0.11098700016736984,
                0.0,
                -0.5340889692306519,
                0.7024986147880554,
                0.0,
                1.0
            ],
            "mesh": 0
        }
    ],
    "scenes": [
        {
            "nodes": [
                0
            ]
        }
    ],
    "scene": 0
}