{
    "asset": {
        "version": "2.0",
        "generator": "Open Asset Import Library (assimp v5.2.0)"
    },
    "extensionsUsed": [
        "KHR_materials_pbrSpecularGlossiness",
        "FB_ngon_encoding"
    ],
    "accessors": [
        {
            "bufferView": 0,
            "byteOffset": 0,
            "componentType": 5126,
            "count": 638,
            "type": "VEC3",
            "max": [
                1.1430000066757203,
                -1.2899880409240723,
                6.349999904632568
            ],
            "min": [
                -7.238999843597412,
                -8.362011909484864,
                -1.2699999809265137
            ]
        },
        {
            "bufferView": 1,
            "byteOffset": 0,
            "componentType": 5126,
            "count": 638,
            "type": "VEC3",
            "max": [
                1.0,
                1.0,
                1.0
            ],
            "min": [
                -1.0,
                -1.0,
                -1.0
            ]
        },
        {
            "bufferView": 2,
            "byteOffset": 0,
            "componentType": 5126,
            "count": 638,
            "type": "VEC2",
            "max": [
                0.9863380193710327,
                0.9791120290756226
            ],
            "min": [
                0.040591999888420108,
                0.007000982761383057
            ]
        },
        {
            "bufferView": 3,
            "byteOffset": 0,
            "componentType": 5125,
            "count": 1488,
            "type": "SCALAR",
            "max": [
                637
            ],
            "min": [
                0
            ]
        }
    ],
    "buffers": [
        {
            "byteLength": 26368,
            "uri": "OilPump.bin"
        }
    ],
    "bufferViews": [
        {
            "buffer": 0,
            "byteOffset": 0,
            "byteLength": 7656,
            "target": 34962
        },
        {
            "buffer": 0,
            "byteOffset": 7656,
            "byteLength": 7656,
            "target": 34962
        },
        {
            "buffer": 0,
            "byteOffset": 15312,
            "byteLength": 5104,
            "target": 34962
        },
        {
            "buffer": 0,
            "byteOffset": 20416,
            "byteLength": 5952,
            "target": 34963
        }
    ],
    "materials": [
        {
            "name": "PDX07_-_Default",
            "pbrMetallicRoughness": {
                "metallicFactor": 0.0
            },
            "extensions": {
                "KHR_materials_pbrSpecularGlossiness": {
                    "glossinessFactor": 0.0
                }
            }
        }
    ],
    "meshes": [
        {
            "primitives": [
                {
                    "mode": 4,
                    "material": 0,
                    "indices": 3,
                    "attributes": {
                        "POSITION": 0,
                        "NORMAL": 1,
                        "TEXCOORD_0": 2
                    }
                }
            ]
        }
    ],
    "nodes": [
        {
            "name": "OilWell",
            "matrix": [
                1.0,
                0.0,
                0.0,
                0.0,
                0.0,
                0.0,
                1.0,
                0.0,
                0.0,
                -1.0,
                0.0,
                0.0,
                3.174999952316284,
                6.0960001945495609,
                4.826000213623047,
                1.0
            ],
            "mesh": 0
        }
    ],
    "scenes": [
        {
            "nodes": [
                0
            ]
        }
    ],
    "scene": 0
}