{
    "asset": {
        "version": "2.0",
        "generator": "Open Asset Import Library (assimp v5.2.0)"
    },
    "extensionsUsed": [
        "KHR_materials_pbrSpecularGlossiness",
        "FB_ngon_encoding"
    ],
    "accessors": [
        {
            "bufferView": 0,
            "byteOffset": 0,
            "componentType": 5126,
            "count": 74,
            "type": "VEC3",
            "max": [
                0.303956001996994,
                2.200000047683716,
                0.050960998982191089
            ],
            "min": [
                -0.30376699566841128,
                0.0,
                -0.029888000339269639
            ]
        },
        {
            "bufferView": 1,
            "byteOffset": 0,
            "componentType": 5126,
            "count": 74,
            "type": "VEC3",
            "max": [
                1.0,
                1.0,
                1.0
            ],
            "min": [
                -1.0,
                -1.0,
                -1.0
            ]
        },
        {
            "bufferView": 2,
            "byteOffset": 0,
            "componentType": 5126,
            "count": 74,
            "type": "VEC2",
            "max": [
                0.9864130020141602,
                0.9838619828224182
            ],
            "min": [
                0.06213200092315674,
                0.010200023651123047
            ]
        },
        {
            "bufferView": 3,
            "byteOffset": 0,
            "componentType": 5125,
            "count": 162,
            "type": "SCALAR",
            "max": [
                73
            ],
            "min": [
                0
            ]
        }
    ],
    "buffers": [
        {
            "byteLength": 3016,
            "uri": "Roadsign.bin"
        }
    ],
    "bufferViews": [
        {
            "buffer": 0,
            "byteOffset": 0,
            "byteLength": 888,
            "target": 34962
        },
        {
            "buffer": 0,
            "byteOffset": 888,
            "byteLength": 888,
            "target": 34962
        },
        {
            "buffer": 0,
            "byteOffset": 1776,
            "byteLength": 592,
            "target": 34962
        },
        {
            "buffer": 0,
            "byteOffset": 2368,
            "byteLength": 648,
            "target": 34963
        }
    ],
    "materials": [
        {
            "name": "PDX21_-_Default",
            "pbrMetallicRoughness": {
                "metallicFactor": 0.0
            },
            "extensions": {
                "KHR_materials_pbrSpecularGlossiness": {
                    "glossinessFactor": 0.0
                }
            }
        }
    ],
    "meshes": [
        {
            "primitives": [
                {
                    "mode": 4,
                    "material": 0,
                    "indices": 3,
                    "attributes": {
                        "POSITION": 0,
                        "NORMAL": 1,
                        "TEXCOORD_0": 2
                    }
                }
            ]
        }
    ],
    "nodes": [
        {
            "name": "Object01",
            "matrix": [
                1.669613003730774,
                0.0,
                0.0,
                0.0,
                0.0,
                1.669613003730774,
                0.0,
                0.0,
                0.0,
                0.0,
                1.669613003730774,
                0.0,
                -0.0000940000027185306,
                0.0,
                0.0009369999752379954,
                1.0
            ],
            "mesh": 0
        }
    ],
    "scenes": [
        {
            "nodes": [
                0
            ]
        }
    ],
    "scene": 0
}