{
    "asset": {
        "version": "2.0",
        "generator": "Open Asset Import Library (assimp v5.2.0)"
    },
    "extensionsUsed": [
        "KHR_materials_pbrSpecularGlossiness",
        "FB_ngon_encoding"
    ],
    "accessors": [
        {
            "bufferView": 0,
            "byteOffset": 0,
            "componentType": 5126,
            "count": 86,
            "type": "VEC3",
            "max": [
                0.24510300159454347,
                2.200000047683716,
                0.052195001393556598
            ],
            "min": [
                -0.2449139952659607,
                0.0,
                -0.029999999329447748
            ]
        },
        {
            "bufferView": 1,
            "byteOffset": 0,
            "componentType": 5126,
            "count": 86,
            "type": "VEC3",
            "max": [
                1.0,
                1.0,
                1.0
            ],
            "min": [
                -1.0,
                -1.0,
                -1.0
            ]
        },
        {
            "bufferView": 2,
            "byteOffset": 0,
            "componentType": 5126,
            "count": 86,
            "type": "VEC2",
            "max": [
                0.9558809995651245,
                0.9688950181007385
            ],
            "min": [
                0.03844999894499779,
                0.0407639741897583
            ]
        },
        {
            "bufferView": 3,
            "byteOffset": 0,
            "componentType": 5125,
            "count": 186,
            "type": "SCALAR",
            "max": [
                85
            ],
            "min": [
                0
            ]
        }
    ],
    "buffers": [
        {
            "byteLength": 3496,
            "uri": "Roadsign2.bin"
        }
    ],
    "bufferViews": [
        {
            "buffer": 0,
            "byteOffset": 0,
            "byteLength": 1032,
            "target": 34962
        },
        {
            "buffer": 0,
            "byteOffset": 1032,
            "byteLength": 1032,
            "target": 34962
        },
        {
            "buffer": 0,
            "byteOffset": 2064,
            "byteLength": 688,
            "target": 34962
        },
        {
            "buffer": 0,
            "byteOffset": 2752,
            "byteLength": 744,
            "target": 34963
        }
    ],
    "materials": [
        {
            "name": "PDX19_-_Default",
            "pbrMetallicRoughness": {
                "metallicFactor": 0.0
            },
            "extensions": {
                "KHR_materials_pbrSpecularGlossiness": {
                    "glossinessFactor": 0.0
                }
            }
        }
    ],
    "meshes": [
        {
            "primitives": [
                {
                    "mode": 4,
                    "material": 0,
                    "indices": 3,
                    "attributes": {
                        "POSITION": 0,
                        "NORMAL": 1,
                        "TEXCOORD_0": 2
                    }
                }
            ]
        }
    ],
    "nodes": [
        {
            "name": "Cylinder02",
            "matrix": [
                1.638550043106079,
                0.0,
                0.0,
                0.0,
                0.0,
                1.638550043106079,
                0.0,
                0.0,
                0.0,
                0.0,
                1.638550043106079,
                0.0,
                -0.0000940000027185306,
                0.0,
                0.0009369999752379954,
                1.0
            ],
            "mesh": 0
        }
    ],
    "scenes": [
        {
            "nodes": [
                0
            ]
        }
    ],
    "scene": 0
}