{
    "asset": {
        "version": "2.0",
        "generator": "Open Asset Import Library (assimp v5.2.0)"
    },
    "extensionsUsed": [
        "KHR_materials_pbrSpecularGlossiness",
        "FB_ngon_encoding"
    ],
    "accessors": [
        {
            "bufferView": 0,
            "byteOffset": 0,
            "componentType": 5126,
            "count": 346,
            "type": "VEC3",
            "max": [
                10.899435043334961,
                4.317999839782715,
                -0.42358899116516116
            ],
            "min": [
                -6.734425067901611,
                0.0,
                -6.349999904632568
            ]
        },
        {
            "bufferView": 1,
            "byteOffset": 0,
            "componentType": 5126,
            "count": 346,
            "type": "VEC3",
            "max": [
                1.0,
                1.0,
                1.0
            ],
            "min": [
                -1.0,
                -0.0000019999999949504856,
                -1.0
            ]
        },
        {
            "bufferView": 2,
            "byteOffset": 0,
            "componentType": 5126,
            "count": 346,
            "type": "VEC2",
            "max": [
                1.0008820295333863,
                27.66666603088379
            ],
            "min": [
                -51.11111068725586,
                0.002200007438659668
            ]
        },
        {
            "bufferView": 3,
            "byteOffset": 0,
            "componentType": 5125,
            "count": 624,
            "type": "SCALAR",
            "max": [
                345
            ],
            "min": [
                0
            ]
        }
    ],
    "buffers": [
        {
            "byteLength": 13568,
            "uri": "Ruin.bin"
        }
    ],
    "bufferViews": [
        {
            "buffer": 0,
            "byteOffset": 0,
            "byteLength": 4152,
            "target": 34962
        },
        {
            "buffer": 0,
            "byteOffset": 4152,
            "byteLength": 4152,
            "target": 34962
        },
        {
            "buffer": 0,
            "byteOffset": 8304,
            "byteLength": 2768,
            "target": 34962
        },
        {
            "buffer": 0,
            "byteOffset": 11072,
            "byteLength": 2496,
            "target": 34963
        }
    ],
    "materials": [
        {
            "name": "PDX07_-_Default",
            "pbrMetallicRoughness": {
                "metallicFactor": 0.0
            },
            "extensions": {
                "KHR_materials_pbrSpecularGlossiness": {
                    "glossinessFactor": 0.0
                }
            }
        }
    ],
    "meshes": [
        {
            "name": "Box01",
            "primitives": [
                {
                    "mode": 4,
                    "material": 0,
                    "indices": 3,
                    "attributes": {
                        "POSITION": 0,
                        "NORMAL": 1,
                        "TEXCOORD_0": 2
                    }
                }
            ]
        }
    ],
    "nodes": [
        {
            "name": "Box01",
            "matrix": [
                1.0,
                0.0,
                0.0,
                0.0,
                0.0,
                1.0,
                0.0,
                0.0,
                0.0,
                0.0,
                1.0,
                0.0,
                -3.302000045776367,
                0.0,
                4.064000129699707,
                1.0
            ],
            "mesh": 0
        }
    ],
    "scenes": [
        {
            "nodes": [
                0
            ]
        }
    ],
    "scene": 0
}