{
    "asset": {
        "version": "2.0",
        "generator": "Open Asset Import Library (assimp v5.2.0)"
    },
    "extensionsUsed": [
        "KHR_materials_pbrSpecularGlossiness",
        "FB_ngon_encoding"
    ],
    "accessors": [
        {
            "bufferView": 0,
            "byteOffset": 0,
            "componentType": 5126,
            "count": 2004,
            "type": "VEC3",
            "max": [
                0.7546250224113464,
                2.4415268898010256,
                4.63234281539917
            ],
            "min": [
                -2.547374963760376,
                0.0,
                2.092341899871826
            ]
        },
        {
            "bufferView": 1,
            "byteOffset": 0,
            "componentType": 5126,
            "count": 2004,
            "type": "VEC3",
            "max": [
                1.0,
                1.0,
                1.0
            ],
            "min": [
                -1.0,
                -1.0,
                -1.0
            ]
        },
        {
            "bufferView": 2,
            "byteOffset": 0,
            "componentType": 5126,
            "count": 2004,
            "type": "VEC2",
            "max": [
                0.9622949957847595,
                0.9990119934082031
            ],
            "min": [
                0.002266000024974346,
                0.005145013332366943
            ]
        },
        {
            "bufferView": 3,
            "byteOffset": 0,
            "componentType": 5125,
            "count": 3888,
            "type": "SCALAR",
            "max": [
                2003
            ],
            "min": [
                0
            ]
        }
    ],
    "buffers": [
        {
            "byteLength": 79680,
            "uri": "RuinHouse.bin"
        }
    ],
    "bufferViews": [
        {
            "buffer": 0,
            "byteOffset": 0,
            "byteLength": 24048,
            "target": 34962
        },
        {
            "buffer": 0,
            "byteOffset": 24048,
            "byteLength": 24048,
            "target": 34962
        },
        {
            "buffer": 0,
            "byteOffset": 48096,
            "byteLength": 16032,
            "target": 34962
        },
        {
            "buffer": 0,
            "byteOffset": 64128,
            "byteLength": 15552,
            "target": 34963
        }
    ],
    "materials": [
        {
            "name": "PDX24_-_Default",
            "pbrMetallicRoughness": {
                "metallicFactor": 0.0
            },
            "extensions": {
                "KHR_materials_pbrSpecularGlossiness": {
                    "glossinessFactor": 0.0
                }
            }
        }
    ],
    "meshes": [
        {
            "primitives": [
                {
                    "mode": 4,
                    "material": 0,
                    "indices": 3,
                    "attributes": {
                        "POSITION": 0,
                        "NORMAL": 1,
                        "TEXCOORD_0": 2
                    }
                }
            ]
        }
    ],
    "nodes": [
        {
            "name": "Box01",
            "matrix": [
                5.47199821472168,
                0.0,
                0.0,
                0.0,
                0.0,
                5.47199821472168,
                0.0,
                0.0,
                0.0,
                0.0,
                5.47199821472168,
                0.0,
                4.855452060699463,
                0.0,
                -18.65105438232422,
                1.0
            ],
            "mesh": 0
        }
    ],
    "scenes": [
        {
            "nodes": [
                0
            ]
        }
    ],
    "scene": 0
}