{
    "asset": {
        "version": "2.0",
        "generator": "Open Asset Import Library (assimp v5.2.0)"
    },
    "extensionsUsed": [
        "KHR_materials_pbrSpecularGlossiness",
        "FB_ngon_encoding"
    ],
    "accessors": [
        {
            "bufferView": 0,
            "byteOffset": 0,
            "componentType": 5126,
            "count": 362,
            "type": "VEC3",
            "max": [
                2.8256568908691408,
                3.809999942779541,
                2.5848588943481447
            ],
            "min": [
                -2.554410934448242,
                0.0,
                -2.5158779621124269
            ]
        },
        {
            "bufferView": 1,
            "byteOffset": 0,
            "componentType": 5126,
            "count": 362,
            "type": "VEC3",
            "max": [
                0.9937791228294373,
                1.0,
                0.9892223477363586
            ],
            "min": [
                -0.9848077893257141,
                -1.0,
                -1.0
            ]
        },
        {
            "bufferView": 2,
            "byteOffset": 0,
            "componentType": 5126,
            "count": 362,
            "type": "VEC2",
            "max": [
                0.9955509901046753,
                1.4714809656143189
            ],
            "min": [
                0.004453999921679497,
                0.06938701868057251
            ]
        },
        {
            "bufferView": 3,
            "byteOffset": 0,
            "componentType": 5125,
            "count": 648,
            "type": "SCALAR",
            "max": [
                361
            ],
            "min": [
                0
            ]
        }
    ],
    "buffers": [
        {
            "byteLength": 14176,
            "uri": "SharpRock2.bin"
        }
    ],
    "bufferViews": [
        {
            "buffer": 0,
            "byteOffset": 0,
            "byteLength": 4344,
            "target": 34962
        },
        {
            "buffer": 0,
            "byteOffset": 4344,
            "byteLength": 4344,
            "target": 34962
        },
        {
            "buffer": 0,
            "byteOffset": 8688,
            "byteLength": 2896,
            "target": 34962
        },
        {
            "buffer": 0,
            "byteOffset": 11584,
            "byteLength": 2592,
            "target": 34963
        }
    ],
    "materials": [
        {
            "name": "PDX09_-_Default",
            "pbrMetallicRoughness": {
                "metallicFactor": 0.0
            },
            "extensions": {
                "KHR_materials_pbrSpecularGlossiness": {
                    "glossinessFactor": 0.0
                }
            }
        }
    ],
    "meshes": [
        {
            "name": "SharpRock3",
            "primitives": [
                {
                    "mode": 4,
                    "material": 0,
                    "indices": 3,
                    "attributes": {
                        "POSITION": 0,
                        "NORMAL": 1,
                        "TEXCOORD_0": 2
                    }
                }
            ]
        }
    ],
    "nodes": [
        {
            "name": "SharpRock3",
            "mesh": 0
        }
    ],
    "scenes": [
        {
            "nodes": [
                0
            ]
        }
    ],
    "scene": 0
}