{
    "asset": {
        "version": "2.0",
        "generator": "Open Asset Import Library (assimp v5.2.0)"
    },
    "extensionsUsed": [
        "KHR_materials_pbrSpecularGlossiness",
        "FB_ngon_encoding"
    ],
    "accessors": [
        {
            "bufferView": 0,
            "byteOffset": 0,
            "componentType": 5126,
            "count": 174,
            "type": "VEC3",
            "max": [
                1.9121909141540528,
                4.218441009521484,
                2.879384994506836
            ],
            "min": [
                -2.0152089595794679,
                -0.00088900001719594,
                -1.679319977760315
            ]
        },
        {
            "bufferView": 1,
            "byteOffset": 0,
            "componentType": 5126,
            "count": 174,
            "type": "VEC3",
            "max": [
                0.9969919919967651,
                0.9979760050773621,
                0.9299522638320923
            ],
            "min": [
                -0.9955418705940247,
                -1.0,
                -0.9998138546943665
            ]
        },
        {
            "bufferView": 2,
            "byteOffset": 0,
            "componentType": 5126,
            "count": 174,
            "type": "VEC2",
            "max": [
                1.032839059829712,
                1.7588139772415162
            ],
            "min": [
                0.016493000090122224,
                0.005522012710571289
            ]
        },
        {
            "bufferView": 3,
            "byteOffset": 0,
            "componentType": 5125,
            "count": 660,
            "type": "SCALAR",
            "max": [
                173
            ],
            "min": [
                0
            ]
        }
    ],
    "buffers": [
        {
            "byteLength": 8208,
            "uri": "SharpRock_0.bin"
        }
    ],
    "bufferViews": [
        {
            "buffer": 0,
            "byteOffset": 0,
            "byteLength": 2088,
            "target": 34962
        },
        {
            "buffer": 0,
            "byteOffset": 2088,
            "byteLength": 2088,
            "target": 34962
        },
        {
            "buffer": 0,
            "byteOffset": 4176,
            "byteLength": 1392,
            "target": 34962
        },
        {
            "buffer": 0,
            "byteOffset": 5568,
            "byteLength": 2640,
            "target": 34963
        }
    ],
    "materials": [
        {
            "name": "PDX09_-_Default",
            "pbrMetallicRoughness": {
                "metallicFactor": 0.0
            },
            "extensions": {
                "KHR_materials_pbrSpecularGlossiness": {
                    "glossinessFactor": 0.0
                }
            }
        }
    ],
    "meshes": [
        {
            "name": "SharpRock",
            "primitives": [
                {
                    "mode": 4,
                    "material": 0,
                    "indices": 3,
                    "attributes": {
                        "POSITION": 0,
                        "NORMAL": 1,
                        "TEXCOORD_0": 2
                    }
                }
            ]
        }
    ],
    "nodes": [
        {
            "name": "SharpRock",
            "mesh": 0
        }
    ],
    "scenes": [
        {
            "nodes": [
                0
            ]
        }
    ],
    "scene": 0
}