{
    "asset": {
        "version": "2.0",
        "generator": "Open Asset Import Library (assimp v5.2.0)"
    },
    "extensionsUsed": [
        "KHR_materials_pbrSpecularGlossiness",
        "FB_ngon_encoding"
    ],
    "accessors": [
        {
            "bufferView": 0,
            "byteOffset": 0,
            "componentType": 5126,
            "count": 266,
            "type": "VEC3",
            "max": [
                212.0538330078125,
                240.6202850341797,
                161.41949462890626
            ],
            "min": [
                -270.75048828125,
                -0.9725819826126099,
                -153.33828735351563
            ]
        },
        {
            "bufferView": 1,
            "byteOffset": 0,
            "componentType": 5126,
            "count": 266,
            "type": "VEC3",
            "max": [
                0.9674262404441834,
                0.9807238578796387,
                0.9957747459411621
            ],
            "min": [
                -0.9852438569068909,
                -0.9999998807907105,
                -0.9970284700393677
            ]
        },
        {
            "bufferView": 2,
            "byteOffset": 0,
            "componentType": 5126,
            "count": 266,
            "type": "VEC2",
            "max": [
                0.9677309989929199,
                1.0
            ],
            "min": [
                0.0,
                0.007218003273010254
            ]
        },
        {
            "bufferView": 3,
            "byteOffset": 0,
            "componentType": 5125,
            "count": 1170,
            "type": "SCALAR",
            "max": [
                265
            ],
            "min": [
                0
            ]
        }
    ],
    "buffers": [
        {
            "byteLength": 13192,
            "uri": "Stone4_0.bin"
        }
    ],
    "bufferViews": [
        {
            "buffer": 0,
            "byteOffset": 0,
            "byteLength": 3192,
            "target": 34962
        },
        {
            "buffer": 0,
            "byteOffset": 3192,
            "byteLength": 3192,
            "target": 34962
        },
        {
            "buffer": 0,
            "byteOffset": 6384,
            "byteLength": 2128,
            "target": 34962
        },
        {
            "buffer": 0,
            "byteOffset": 8512,
            "byteLength": 4680,
            "target": 34963
        }
    ],
    "materials": [
        {
            "name": "orig_09_-_Default",
            "pbrMetallicRoughness": {
                "metallicFactor": 0.0
            },
            "extensions": {
                "KHR_materials_pbrSpecularGlossiness": {
                    "glossinessFactor": 0.0
                }
            }
        }
    ],
    "meshes": [
        {
            "primitives": [
                {
                    "mode": 4,
                    "material": 0,
                    "indices": 3,
                    "attributes": {
                        "POSITION": 0,
                        "NORMAL": 1,
                        "TEXCOORD_0": 2
                    }
                }
            ]
        }
    ],
    "nodes": [
        {
            "name": "Stone4",
            "matrix": [
                0.011233000084757805,
                0.0,
                0.0,
                0.0,
                0.0,
                0.011233000084757805,
                0.0,
                0.0,
                0.0,
                0.0,
                0.011233000084757805,
                0.0,
                -0.02291800081729889,
                0.0,
                -0.0267340000718832,
                1.0
            ],
            "mesh": 0
        }
    ],
    "scenes": [
        {
            "nodes": [
                0
            ]
        }
    ],
    "scene": 0
}