{
    "asset": {
        "version": "2.0",
        "generator": "Open Asset Import Library (assimp v5.2.0)"
    },
    "extensionsUsed": [
        "KHR_materials_pbrSpecularGlossiness",
        "FB_ngon_encoding"
    ],
    "accessors": [
        {
            "bufferView": 0,
            "byteOffset": 0,
            "componentType": 5126,
            "count": 138,
            "type": "VEC3",
            "max": [
                241.87442016601563,
                316.17816162109377,
                166.38035583496095
            ],
            "min": [
                -143.21597290039063,
                -9.999999974752428e-7,
                -176.50868225097657
            ]
        },
        {
            "bufferView": 1,
            "byteOffset": 0,
            "componentType": 5126,
            "count": 138,
            "type": "VEC3",
            "max": [
                0.8547651767730713,
                0.9395588636398315,
                0.9718753695487976
            ],
            "min": [
                -0.9944122433662415,
                -1.0,
                -0.9054728746414185
            ]
        },
        {
            "bufferView": 2,
            "byteOffset": 0,
            "componentType": 5126,
            "count": 138,
            "type": "VEC2",
            "max": [
                0.9881410002708435,
                1.0
            ],
            "min": [
                0.0,
                0.08694100379943848
            ]
        },
        {
            "bufferView": 3,
            "byteOffset": 0,
            "componentType": 5125,
            "count": 540,
            "type": "SCALAR",
            "max": [
                137
            ],
            "min": [
                0
            ]
        }
    ],
    "buffers": [
        {
            "byteLength": 6576,
            "uri": "Stone5_0.bin"
        }
    ],
    "bufferViews": [
        {
            "buffer": 0,
            "byteOffset": 0,
            "byteLength": 1656,
            "target": 34962
        },
        {
            "buffer": 0,
            "byteOffset": 1656,
            "byteLength": 1656,
            "target": 34962
        },
        {
            "buffer": 0,
            "byteOffset": 3312,
            "byteLength": 1104,
            "target": 34962
        },
        {
            "buffer": 0,
            "byteOffset": 4416,
            "byteLength": 2160,
            "target": 34963
        }
    ],
    "materials": [
        {
            "name": "orig_09_-_Default",
            "pbrMetallicRoughness": {
                "metallicFactor": 0.0
            },
            "extensions": {
                "KHR_materials_pbrSpecularGlossiness": {
                    "glossinessFactor": 0.0
                }
            }
        }
    ],
    "meshes": [
        {
            "primitives": [
                {
                    "mode": 4,
                    "material": 0,
                    "indices": 3,
                    "attributes": {
                        "POSITION": 0,
                        "NORMAL": 1,
                        "TEXCOORD_0": 2
                    }
                }
            ]
        }
    ],
    "nodes": [
        {
            "name": "Stone5",
            "matrix": [
                0.008511999621987343,
                0.0,
                0.0,
                0.0,
                0.0,
                0.008511999621987343,
                0.0,
                0.0,
                0.0,
                0.0,
                0.008511999621987343,
                0.0,
                -0.04562599956989288,
                0.0,
                0.045260000973939899,
                1.0
            ],
            "mesh": 0
        }
    ],
    "scenes": [
        {
            "nodes": [
                0
            ]
        }
    ],
    "scene": 0
}