{
    "asset": {
        "version": "2.0",
        "generator": "Open Asset Import Library (assimp v5.2.0)"
    },
    "extensionsUsed": [
        "KHR_materials_pbrSpecularGlossiness",
        "FB_ngon_encoding"
    ],
    "accessors": [
        {
            "bufferView": 0,
            "byteOffset": 0,
            "componentType": 5126,
            "count": 76,
            "type": "VEC3",
            "max": [
                0.9446099996566773,
                1.2737959623336793,
                0.5957970023155212
            ],
            "min": [
                -0.9446099996566773,
                0.0,
                -0.5957970023155212
            ]
        },
        {
            "bufferView": 1,
            "byteOffset": 0,
            "componentType": 5126,
            "count": 76,
            "type": "VEC3",
            "max": [
                1.0,
                0.9193428754806519,
                0.9157907366752625
            ],
            "min": [
                -1.0,
                -0.8814169764518738,
                -0.9157907366752625
            ]
        },
        {
            "bufferView": 2,
            "byteOffset": 0,
            "componentType": 5126,
            "count": 76,
            "type": "VEC2",
            "max": [
                0.9620770215988159,
                0.9875850081443787
            ],
            "min": [
                0.018140999600291253,
                0.02262699604034424
            ]
        },
        {
            "bufferView": 3,
            "byteOffset": 0,
            "componentType": 5125,
            "count": 180,
            "type": "SCALAR",
            "max": [
                75
            ],
            "min": [
                0
            ]
        }
    ],
    "buffers": [
        {
            "byteLength": 3152,
            "uri": "Trashcan.bin"
        }
    ],
    "bufferViews": [
        {
            "buffer": 0,
            "byteOffset": 0,
            "byteLength": 912,
            "target": 34962
        },
        {
            "buffer": 0,
            "byteOffset": 912,
            "byteLength": 912,
            "target": 34962
        },
        {
            "buffer": 0,
            "byteOffset": 1824,
            "byteLength": 608,
            "target": 34962
        },
        {
            "buffer": 0,
            "byteOffset": 2432,
            "byteLength": 720,
            "target": 34963
        }
    ],
    "materials": [
        {
            "name": "PDX19_-_Default",
            "pbrMetallicRoughness": {
                "metallicFactor": 0.0
            },
            "extensions": {
                "KHR_materials_pbrSpecularGlossiness": {
                    "glossinessFactor": 0.0
                }
            }
        }
    ],
    "meshes": [
        {
            "name": "Box01",
            "primitives": [
                {
                    "mode": 4,
                    "material": 0,
                    "indices": 3,
                    "attributes": {
                        "POSITION": 0,
                        "NORMAL": 1,
                        "TEXCOORD_0": 2
                    }
                }
            ]
        }
    ],
    "nodes": [
        {
            "name": "Box01",
            "mesh": 0
        }
    ],
    "scenes": [
        {
            "nodes": [
                0
            ]
        }
    ],
    "scene": 0
}