{
    "asset": {
        "version": "2.0",
        "generator": "Open Asset Import Library (assimp v5.2.0)"
    },
    "extensionsUsed": [
        "KHR_materials_pbrSpecularGlossiness",
        "FB_ngon_encoding"
    ],
    "accessors": [
        {
            "bufferView": 0,
            "byteOffset": 0,
            "componentType": 5126,
            "count": 177,
            "type": "VEC3",
            "max": [
                0.6096000075340271,
                10.731679916381836,
                0.6096000075340271
            ],
            "min": [
                -0.6096000075340271,
                0.0,
                -0.7619990110397339
            ]
        },
        {
            "bufferView": 1,
            "byteOffset": 0,
            "componentType": 5126,
            "count": 177,
            "type": "VEC3",
            "max": [
                1.0,
                0.9580531120300293,
                1.0
            ],
            "min": [
                -1.0,
                -0.9580527544021606,
                -1.0
            ]
        },
        {
            "bufferView": 2,
            "byteOffset": 0,
            "componentType": 5126,
            "count": 177,
            "type": "VEC2",
            "max": [
                0.9200929999351502,
                0.9925349950790405
            ],
            "min": [
                0.0034839999862015249,
                0.01004701852798462
            ]
        },
        {
            "bufferView": 3,
            "byteOffset": 0,
            "componentType": 5125,
            "count": 600,
            "type": "SCALAR",
            "max": [
                176
            ],
            "min": [
                0
            ]
        },
        {
            "bufferView": 4,
            "byteOffset": 0,
            "componentType": 5126,
            "count": 182,
            "type": "VEC3",
            "max": [
                3.974601984024048,
                4.56522798538208,
                0.7620000243186951
            ],
            "min": [
                -3.967298984527588,
                -2.318985939025879,
                0.4318000078201294
            ]
        },
        {
            "bufferView": 5,
            "byteOffset": 0,
            "componentType": 5126,
            "count": 182,
            "type": "VEC3",
            "max": [
                0.9721851348876953,
                0.9721832275390625,
                1.0
            ],
            "min": [
                -0.9721848964691162,
                -0.9721857905387878,
                -0.999164342880249
            ]
        },
        {
            "bufferView": 6,
            "byteOffset": 0,
            "componentType": 5126,
            "count": 182,
            "type": "VEC2",
            "max": [
                0.9877600073814392,
                0.9823300242424011
            ],
            "min": [
                0.007720000110566616,
                0.05640000104904175
            ]
        },
        {
            "bufferView": 7,
            "byteOffset": 0,
            "componentType": 5125,
            "count": 567,
            "type": "SCALAR",
            "max": [
                181
            ],
            "min": [
                0
            ]
        }
    ],
    "buffers": [
        {
            "byteLength": 16156,
            "uri": "Windmill.bin"
        }
    ],
    "bufferViews": [
        {
            "buffer": 0,
            "byteOffset": 0,
            "byteLength": 2124,
            "target": 34962
        },
        {
            "buffer": 0,
            "byteOffset": 2124,
            "byteLength": 2124,
            "target": 34962
        },
        {
            "buffer": 0,
            "byteOffset": 4248,
            "byteLength": 1416,
            "target": 34962
        },
        {
            "buffer": 0,
            "byteOffset": 5664,
            "byteLength": 2400,
            "target": 34963
        },
        {
            "buffer": 0,
            "byteOffset": 8064,
            "byteLength": 2184,
            "target": 34962
        },
        {
            "buffer": 0,
            "byteOffset": 10248,
            "byteLength": 2184,
            "target": 34962
        },
        {
            "buffer": 0,
            "byteOffset": 12432,
            "byteLength": 1456,
            "target": 34962
        },
        {
            "buffer": 0,
            "byteOffset": 13888,
            "byteLength": 2268,
            "target": 34963
        }
    ],
    "materials": [
        {
            "name": "PDX02_-_Default",
            "pbrMetallicRoughness": {
                "metallicFactor": 0.0
            },
            "extensions": {
                "KHR_materials_pbrSpecularGlossiness": {
                    "glossinessFactor": 0.0
                }
            }
        }
    ],
    "meshes": [
        {
            "primitives": [
                {
                    "mode": 4,
                    "material": 0,
                    "indices": 3,
                    "attributes": {
                        "POSITION": 0,
                        "NORMAL": 1,
                        "TEXCOORD_0": 2
                    }
                }
            ]
        },
        {
            "primitives": [
                {
                    "mode": 4,
                    "material": 0,
                    "indices": 7,
                    "attributes": {
                        "POSITION": 4,
                        "NORMAL": 5,
                        "TEXCOORD_0": 6
                    }
                }
            ]
        }
    ],
    "nodes": [
        {
            "name": "$dummy_root",
            "children": [
                1,
                2
            ]
        },
        {
            "name": "Windmill_LowPoly",
            "matrix": [
                5.834399223327637,
                0.0,
                -0.0,
                0.0,
                0.0,
                5.834399223327637,
                -0.0,
                0.0,
                -0.0,
                -0.0,
                5.834399223327637,
                -0.0,
                -0.004679999779909849,
                -0.001353000057861209,
                -0.8316619992256165,
                1.0
            ],
            "mesh": 0
        },
        {
            "name": "Windmill_Wings",
            "matrix": [
                5.834399223327637,
                0.0,
                -0.0,
                0.0,
                0.0,
                5.834399223327637,
                -0.0,
                0.0,
                -0.0,
                -0.0,
                5.834399223327637,
                -0.0,
                -0.004679999779909849,
                60.79397964477539,
                -0.8316590189933777,
                1.0
            ],
            "mesh": 1
        }
    ],
    "scenes": [
        {
            "nodes": [
                0
            ]
        }
    ],
    "scene": 0
}